solid sphere
	facet normal -0.156233 0.986415 0.0507631
		outer loop
			vertex 0 1 0
			vertex -0.309017 0.951057 0
			vertex -0.25 0.951057 0.181636
		endloop
	endfacet
	facet normal -0.0965572 0.986415 0.1329
		outer loop
			vertex 0 1 0
			vertex -0.25 0.951057 0.181636
			vertex -0.0954915 0.951057 0.293893
		endloop
	endfacet
	facet normal -6.09728e-17 0.986415 0.164273
		outer loop
			vertex 0 1 0
			vertex -0.0954915 0.951057 0.293893
			vertex 0.0954915 0.951057 0.293893
		endloop
	endfacet
	facet normal 0.0965572 0.986415 0.1329
		outer loop
			vertex 0 1 0
			vertex 0.0954915 0.951057 0.293893
			vertex 0.25 0.951057 0.181636
		endloop
	endfacet
	facet normal 0.156233 0.986415 0.0507631
		outer loop
			vertex 0 1 0
			vertex 0.25 0.951057 0.181636
			vertex 0.309017 0.951057 3.78437e-17
		endloop
	endfacet
	facet normal 0.156233 0.986415 -0.0507631
		outer loop
			vertex 0 1 0
			vertex 0.309017 0.951057 3.78437e-17
			vertex 0.25 0.951057 -0.181636
		endloop
	endfacet
	facet normal 0.0965572 0.986415 -0.1329
		outer loop
			vertex 0 1 0
			vertex 0.25 0.951057 -0.181636
			vertex 0.0954915 0.951057 -0.293893
		endloop
	endfacet
	facet normal 6.09728e-17 0.986415 -0.164273
		outer loop
			vertex 0 1 0
			vertex 0.0954915 0.951057 -0.293893
			vertex -0.0954915 0.951057 -0.293893
		endloop
	endfacet
	facet normal -0.0965572 0.986415 -0.1329
		outer loop
			vertex 0 1 0
			vertex -0.0954915 0.951057 -0.293893
			vertex -0.25 0.951057 -0.181636
		endloop
	endfacet
	facet normal -0.156233 0.986415 -0.0507631
		outer loop
			vertex 0 1 0
			vertex -0.25 0.951057 -0.181636
			vertex -0.309017 0.951057 0
		endloop
	endfacet
	facet normal -0.44913 0.881468 0.145931
		outer loop
			vertex -0.309017 0.951057 0
			vertex -0.587785 0.809017 0
			vertex -0.25 0.951057 0.181636
		endloop
	endfacet
	facet normal -0.44913 0.881468 0.145931
		outer loop
			vertex -0.25 0.951057 0.181636
			vertex -0.587785 0.809017 0
			vertex -0.475528 0.809017 0.345492
		endloop
	endfacet
	facet normal -0.277578 0.881468 0.382053
		outer loop
			vertex -0.25 0.951057 0.181636
			vertex -0.475528 0.809017 0.345492
			vertex -0.0954915 0.951057 0.293893
		endloop
	endfacet
	facet normal -0.277578 0.881468 0.382053
		outer loop
			vertex -0.0954915 0.951057 0.293893
			vertex -0.475528 0.809017 0.345492
			vertex -0.181636 0.809017 0.559017
		endloop
	endfacet
	facet normal -1.37262e-16 0.881468 0.472244
		outer loop
			vertex -0.0954915 0.951057 0.293893
			vertex -0.181636 0.809017 0.559017
			vertex 0.0954915 0.951057 0.293893
		endloop
	endfacet
	facet normal 0 0.881468 0.472244
		outer loop
			vertex 0.0954915 0.951057 0.293893
			vertex -0.181636 0.809017 0.559017
			vertex 0.181636 0.809017 0.559017
		endloop
	endfacet
	facet normal 0.277578 0.881468 0.382053
		outer loop
			vertex 0.0954915 0.951057 0.293893
			vertex 0.181636 0.809017 0.559017
			vertex 0.25 0.951057 0.181636
		endloop
	endfacet
	facet normal 0.277578 0.881468 0.382053
		outer loop
			vertex 0.25 0.951057 0.181636
			vertex 0.181636 0.809017 0.559017
			vertex 0.475528 0.809017 0.345492
		endloop
	endfacet
	facet normal 0.44913 0.881468 0.145931
		outer loop
			vertex 0.25 0.951057 0.181636
			vertex 0.475528 0.809017 0.345492
			vertex 0.309017 0.951057 3.78437e-17
		endloop
	endfacet
	facet normal 0.44913 0.881468 0.145931
		outer loop
			vertex 0.309017 0.951057 3.78437e-17
			vertex 0.475528 0.809017 0.345492
			vertex 0.587785 0.809017 7.19829e-17
		endloop
	endfacet
	facet normal 0.44913 0.881468 -0.145931
		outer loop
			vertex 0.309017 0.951057 3.78437e-17
			vertex 0.587785 0.809017 7.19829e-17
			vertex 0.25 0.951057 -0.181636
		endloop
	endfacet
	facet normal 0.44913 0.881468 -0.145931
		outer loop
			vertex 0.25 0.951057 -0.181636
			vertex 0.587785 0.809017 7.19829e-17
			vertex 0.475528 0.809017 -0.345492
		endloop
	endfacet
	facet normal 0.277578 0.881468 -0.382053
		outer loop
			vertex 0.25 0.951057 -0.181636
			vertex 0.475528 0.809017 -0.345492
			vertex 0.0954915 0.951057 -0.293893
		endloop
	endfacet
	facet normal 0.277578 0.881468 -0.382053
		outer loop
			vertex 0.0954915 0.951057 -0.293893
			vertex 0.475528 0.809017 -0.345492
			vertex 0.181636 0.809017 -0.559017
		endloop
	endfacet
	facet normal 1.37262e-16 0.881468 -0.472244
		outer loop
			vertex 0.0954915 0.951057 -0.293893
			vertex 0.181636 0.809017 -0.559017
			vertex -0.0954915 0.951057 -0.293893
		endloop
	endfacet
	facet normal 0 0.881468 -0.472244
		outer loop
			vertex -0.0954915 0.951057 -0.293893
			vertex 0.181636 0.809017 -0.559017
			vertex -0.181636 0.809017 -0.559017
		endloop
	endfacet
	facet normal -0.277578 0.881468 -0.382053
		outer loop
			vertex -0.0954915 0.951057 -0.293893
			vertex -0.181636 0.809017 -0.559017
			vertex -0.25 0.951057 -0.181636
		endloop
	endfacet
	facet normal -0.277578 0.881468 -0.382053
		outer loop
			vertex -0.25 0.951057 -0.181636
			vertex -0.181636 0.809017 -0.559017
			vertex -0.475528 0.809017 -0.345492
		endloop
	endfacet
	facet normal -0.587785 0 0.809017
		outer loop
			vertex -0.25 0.951057 -0.181636
			vertex -0.475528 0.809017 -0.345492
			vertex 0 0 0
		endloop
	endfacet
	facet normal 0.82076 0.266681 -0.505208
		outer loop
			vertex 0 0 0
			vertex -0.475528 0.809017 -0.345492
			vertex -0.309017 0.951057 0
		endloop
	endfacet
	facet normal -0.689152 0.689152 0.223919
		outer loop
			vertex -0.587785 0.809017 0
			vertex -0.809017 0.587785 0
			vertex -0.475528 0.809017 0.345492
		endloop
	endfacet
	facet normal -0.689152 0.689152 0.223919
		outer loop
			vertex -0.475528 0.809017 0.345492
			vertex -0.809017 0.587785 0
			vertex -0.654508 0.587785 0.475528
		endloop
	endfacet
	facet normal -0.425919 0.689152 0.586227
		outer loop
			vertex -0.475528 0.809017 0.345492
			vertex -0.654508 0.587785 0.475528
			vertex -0.181636 0.809017 0.559017
		endloop
	endfacet
	facet normal -0.425919 0.689152 0.586227
		outer loop
			vertex -0.181636 0.809017 0.559017
			vertex -0.654508 0.587785 0.475528
			vertex -0.25 0.587785 0.769421
		endloop
	endfacet
	facet normal -0 0.689152 0.724617
		outer loop
			vertex -0.181636 0.809017 0.559017
			vertex -0.25 0.587785 0.769421
			vertex 0.181636 0.809017 0.559017
		endloop
	endfacet
	facet normal 0 0.689152 0.724617
		outer loop
			vertex 0.181636 0.809017 0.559017
			vertex -0.25 0.587785 0.769421
			vertex 0.25 0.587785 0.769421
		endloop
	endfacet
	facet normal 0.425919 0.689152 0.586227
		outer loop
			vertex 0.181636 0.809017 0.559017
			vertex 0.25 0.587785 0.769421
			vertex 0.475528 0.809017 0.345492
		endloop
	endfacet
	facet normal 0.425919 0.689152 0.586227
		outer loop
			vertex 0.475528 0.809017 0.345492
			vertex 0.25 0.587785 0.769421
			vertex 0.654508 0.587785 0.475528
		endloop
	endfacet
	facet normal 0.689152 0.689152 0.223919
		outer loop
			vertex 0.475528 0.809017 0.345492
			vertex 0.654508 0.587785 0.475528
			vertex 0.587785 0.809017 7.19829e-17
		endloop
	endfacet
	facet normal 0.689152 0.689152 0.223919
		outer loop
			vertex 0.587785 0.809017 7.19829e-17
			vertex 0.654508 0.587785 0.475528
			vertex 0.809017 0.587785 9.9076e-17
		endloop
	endfacet
	facet normal 0.689152 0.689152 -0.223919
		outer loop
			vertex 0.587785 0.809017 7.19829e-17
			vertex 0.809017 0.587785 9.9076e-17
			vertex 0.475528 0.809017 -0.345492
		endloop
	endfacet
	facet normal 0.689152 0.689152 -0.223919
		outer loop
			vertex 0.475528 0.809017 -0.345492
			vertex 0.809017 0.587785 9.9076e-17
			vertex 0.654508 0.587785 -0.475528
		endloop
	endfacet
	facet normal 0.425919 0.689152 -0.586227
		outer loop
			vertex 0.475528 0.809017 -0.345492
			vertex 0.654508 0.587785 -0.475528
			vertex 0.181636 0.809017 -0.559017
		endloop
	endfacet
	facet normal 0.425919 0.689152 -0.586227
		outer loop
			vertex 0.181636 0.809017 -0.559017
			vertex 0.654508 0.587785 -0.475528
			vertex 0.25 0.587785 -0.769421
		endloop
	endfacet
	facet normal 0 0.689152 -0.724617
		outer loop
			vertex 0.181636 0.809017 -0.559017
			vertex 0.25 0.587785 -0.769421
			vertex -0.181636 0.809017 -0.559017
		endloop
	endfacet
	facet normal 0 0.689152 -0.724617
		outer loop
			vertex -0.181636 0.809017 -0.559017
			vertex 0.25 0.587785 -0.769421
			vertex -0.25 0.587785 -0.769421
		endloop
	endfacet
	facet normal -0.425919 0.689152 -0.586227
		outer loop
			vertex -0.181636 0.809017 -0.559017
			vertex -0.25 0.587785 -0.769421
			vertex -0.475528 0.809017 -0.345492
		endloop
	endfacet
	facet normal -0.425919 0.689152 -0.586227
		outer loop
			vertex -0.475528 0.809017 -0.345492
			vertex -0.25 0.587785 -0.769421
			vertex -0.654508 0.587785 -0.475528
		endloop
	endfacet
	facet normal -0.587785 -6.73642e-17 0.809017
		outer loop
			vertex -0.475528 0.809017 -0.345492
			vertex -0.654508 0.587785 -0.475528
			vertex 0 0 0
		endloop
	endfacet
	facet normal 0.697457 0.226617 -0.679852
		outer loop
			vertex 0 0 0
			vertex -0.654508 0.587785 -0.475528
			vertex -0.309017 0.951057 0
		endloop
	endfacet
	facet normal -0.855862 0.436083 0.278086
		outer loop
			vertex -0.809017 0.587785 0
			vertex -0.951057 0.309017 0
			vertex -0.654508 0.587785 0.475528
		endloop
	endfacet
	facet normal -0.855862 0.436083 0.278086
		outer loop
			vertex -0.654508 0.587785 0.475528
			vertex -0.951057 0.309017 0
			vertex -0.769421 0.309017 0.559017
		endloop
	endfacet
	facet normal -0.528952 0.436083 0.728039
		outer loop
			vertex -0.654508 0.587785 0.475528
			vertex -0.769421 0.309017 0.559017
			vertex -0.25 0.587785 0.769421
		endloop
	endfacet
	facet normal -0.528952 0.436083 0.728039
		outer loop
			vertex -0.25 0.587785 0.769421
			vertex -0.769421 0.309017 0.559017
			vertex -0.293893 0.309017 0.904508
		endloop
	endfacet
	facet normal -0 0.436083 0.899906
		outer loop
			vertex -0.25 0.587785 0.769421
			vertex -0.293893 0.309017 0.904508
			vertex 0.25 0.587785 0.769421
		endloop
	endfacet
	facet normal -1.90544e-16 0.436083 0.899906
		outer loop
			vertex 0.25 0.587785 0.769421
			vertex -0.293893 0.309017 0.904508
			vertex 0.293893 0.309017 0.904508
		endloop
	endfacet
	facet normal 0.528952 0.436083 0.728039
		outer loop
			vertex 0.25 0.587785 0.769421
			vertex 0.293893 0.309017 0.904508
			vertex 0.654508 0.587785 0.475528
		endloop
	endfacet
	facet normal 0.528952 0.436083 0.728039
		outer loop
			vertex 0.654508 0.587785 0.475528
			vertex 0.293893 0.309017 0.904508
			vertex 0.769421 0.309017 0.559017
		endloop
	endfacet
	facet normal 0.855862 0.436083 0.278086
		outer loop
			vertex 0.654508 0.587785 0.475528
			vertex 0.769421 0.309017 0.559017
			vertex 0.809017 0.587785 9.9076e-17
		endloop
	endfacet
	facet normal 0.855862 0.436083 0.278086
		outer loop
			vertex 0.809017 0.587785 9.9076e-17
			vertex 0.769421 0.309017 0.559017
			vertex 0.951057 0.309017 1.16471e-16
		endloop
	endfacet
	facet normal 0.855862 0.436083 -0.278086
		outer loop
			vertex 0.809017 0.587785 9.9076e-17
			vertex 0.951057 0.309017 1.16471e-16
			vertex 0.654508 0.587785 -0.475528
		endloop
	endfacet
	facet normal 0.855862 0.436083 -0.278086
		outer loop
			vertex 0.654508 0.587785 -0.475528
			vertex 0.951057 0.309017 1.16471e-16
			vertex 0.769421 0.309017 -0.559017
		endloop
	endfacet
	facet normal 0.528952 0.436083 -0.728039
		outer loop
			vertex 0.654508 0.587785 -0.475528
			vertex 0.769421 0.309017 -0.559017
			vertex 0.25 0.587785 -0.769421
		endloop
	endfacet
	facet normal 0.528952 0.436083 -0.728039
		outer loop
			vertex 0.25 0.587785 -0.769421
			vertex 0.769421 0.309017 -0.559017
			vertex 0.293893 0.309017 -0.904508
		endloop
	endfacet
	facet normal 0 0.436083 -0.899906
		outer loop
			vertex 0.25 0.587785 -0.769421
			vertex 0.293893 0.309017 -0.904508
			vertex -0.25 0.587785 -0.769421
		endloop
	endfacet
	facet normal 1.90544e-16 0.436083 -0.899906
		outer loop
			vertex -0.25 0.587785 -0.769421
			vertex 0.293893 0.309017 -0.904508
			vertex -0.293893 0.309017 -0.904508
		endloop
	endfacet
	facet normal -0.528952 0.436083 -0.728039
		outer loop
			vertex -0.25 0.587785 -0.769421
			vertex -0.293893 0.309017 -0.904508
			vertex -0.654508 0.587785 -0.475528
		endloop
	endfacet
	facet normal -0.528952 0.436083 -0.728039
		outer loop
			vertex -0.654508 0.587785 -0.475528
			vertex -0.293893 0.309017 -0.904508
			vertex -0.769421 0.309017 -0.559017
		endloop
	endfacet
	facet normal -0.587785 2.24547e-17 0.809017
		outer loop
			vertex -0.654508 0.587785 -0.475528
			vertex -0.769421 0.309017 -0.559017
			vertex 0 0 0
		endloop
	endfacet
	facet normal 0.627724 0.20396 -0.751241
		outer loop
			vertex 0 0 0
			vertex -0.769421 0.309017 -0.559017
			vertex -0.309017 0.951057 0
		endloop
	endfacet
	facet normal -0.940447 0.148952 0.30557
		outer loop
			vertex -0.951057 0.309017 0
			vertex -1 6.12323e-17 0
			vertex -0.769421 0.309017 0.559017
		endloop
	endfacet
	facet normal -0.940447 0.148952 0.30557
		outer loop
			vertex -0.769421 0.309017 0.559017
			vertex -1 6.12323e-17 0
			vertex -0.809017 6.12323e-17 0.587785
		endloop
	endfacet
	facet normal -0.581228 0.148952 0.799992
		outer loop
			vertex -0.769421 0.309017 0.559017
			vertex -0.809017 6.12323e-17 0.587785
			vertex -0.293893 0.309017 0.904508
		endloop
	endfacet
	facet normal -0.581228 0.148952 0.799992
		outer loop
			vertex -0.293893 0.309017 0.904508
			vertex -0.809017 6.12323e-17 0.587785
			vertex -0.309017 6.12323e-17 0.951057
		endloop
	endfacet
	facet normal -1.86775e-16 0.148952 0.988844
		outer loop
			vertex -0.293893 0.309017 0.904508
			vertex -0.309017 6.12323e-17 0.951057
			vertex 0.293893 0.309017 0.904508
		endloop
	endfacet
	facet normal -1.79636e-16 0.148952 0.988844
		outer loop
			vertex 0.293893 0.309017 0.904508
			vertex -0.309017 6.12323e-17 0.951057
			vertex 0.309017 6.12323e-17 0.951057
		endloop
	endfacet
	facet normal 0.581228 0.148952 0.799992
		outer loop
			vertex 0.293893 0.309017 0.904508
			vertex 0.309017 6.12323e-17 0.951057
			vertex 0.769421 0.309017 0.559017
		endloop
	endfacet
	facet normal 0.581228 0.148952 0.799992
		outer loop
			vertex 0.769421 0.309017 0.559017
			vertex 0.309017 6.12323e-17 0.951057
			vertex 0.809017 6.12323e-17 0.587785
		endloop
	endfacet
	facet normal 0.940447 0.148952 0.30557
		outer loop
			vertex 0.769421 0.309017 0.559017
			vertex 0.809017 6.12323e-17 0.587785
			vertex 0.951057 0.309017 1.16471e-16
		endloop
	endfacet
	facet normal 0.940447 0.148952 0.30557
		outer loop
			vertex 0.951057 0.309017 1.16471e-16
			vertex 0.809017 6.12323e-17 0.587785
			vertex 1 6.12323e-17 1.22465e-16
		endloop
	endfacet
	facet normal 0.940447 0.148952 -0.30557
		outer loop
			vertex 0.951057 0.309017 1.16471e-16
			vertex 1 6.12323e-17 1.22465e-16
			vertex 0.769421 0.309017 -0.559017
		endloop
	endfacet
	facet normal 0.940447 0.148952 -0.30557
		outer loop
			vertex 0.769421 0.309017 -0.559017
			vertex 1 6.12323e-17 1.22465e-16
			vertex 0.809017 6.12323e-17 -0.587785
		endloop
	endfacet
	facet normal 0.581228 0.148952 -0.799992
		outer loop
			vertex 0.769421 0.309017 -0.559017
			vertex 0.809017 6.12323e-17 -0.587785
			vertex 0.293893 0.309017 -0.904508
		endloop
	endfacet
	facet normal 0.581228 0.148952 -0.799992
		outer loop
			vertex 0.293893 0.309017 -0.904508
			vertex 0.809017 6.12323e-17 -0.587785
			vertex 0.309017 6.12323e-17 -0.951057
		endloop
	endfacet
	facet normal 1.86775e-16 0.148952 -0.988844
		outer loop
			vertex 0.293893 0.309017 -0.904508
			vertex 0.309017 6.12323e-17 -0.951057
			vertex -0.293893 0.309017 -0.904508
		endloop
	endfacet
	facet normal 1.79636e-16 0.148952 -0.988844
		outer loop
			vertex -0.293893 0.309017 -0.904508
			vertex 0.309017 6.12323e-17 -0.951057
			vertex -0.309017 6.12323e-17 -0.951057
		endloop
	endfacet
	facet normal -0.581228 0.148952 -0.799992
		outer loop
			vertex -0.293893 0.309017 -0.904508
			vertex -0.309017 6.12323e-17 -0.951057
			vertex -0.769421 0.309017 -0.559017
		endloop
	endfacet
	facet normal -0.581228 0.148952 -0.799992
		outer loop
			vertex -0.769421 0.309017 -0.559017
			vertex -0.309017 6.12323e-17 -0.951057
			vertex -0.809017 6.12323e-17 -0.587785
		endloop
	endfacet
	facet normal -0.587785 6.73642e-17 0.809017
		outer loop
			vertex -0.769421 0.309017 -0.559017
			vertex -0.809017 6.12323e-17 -0.587785
			vertex 0 0 0
		endloop
	endfacet
	facet normal 0.57735 0.187592 -0.794654
		outer loop
			vertex 0 0 0
			vertex -0.809017 6.12323e-17 -0.587785
			vertex -0.309017 0.951057 0
		endloop
	endfacet
	facet normal -0.940447 -0.148952 0.30557
		outer loop
			vertex -1 6.12323e-17 0
			vertex -0.951057 -0.309017 0
			vertex -0.809017 6.12323e-17 0.587785
		endloop
	endfacet
	facet normal -0.940447 -0.148952 0.30557
		outer loop
			vertex -0.809017 6.12323e-17 0.587785
			vertex -0.951057 -0.309017 0
			vertex -0.769421 -0.309017 0.559017
		endloop
	endfacet
	facet normal -0.581228 -0.148952 0.799992
		outer loop
			vertex -0.809017 6.12323e-17 0.587785
			vertex -0.769421 -0.309017 0.559017
			vertex -0.309017 6.12323e-17 0.951057
		endloop
	endfacet
	facet normal -0.581228 -0.148952 0.799992
		outer loop
			vertex -0.309017 6.12323e-17 0.951057
			vertex -0.769421 -0.309017 0.559017
			vertex -0.293893 -0.309017 0.904508
		endloop
	endfacet
	facet normal -1.77634e-16 -0.148952 0.988844
		outer loop
			vertex -0.309017 6.12323e-17 0.951057
			vertex -0.293893 -0.309017 0.904508
			vertex 0.309017 6.12323e-17 0.951057
		endloop
	endfacet
	facet normal -1.88881e-16 -0.148952 0.988844
		outer loop
			vertex 0.309017 6.12323e-17 0.951057
			vertex -0.293893 -0.309017 0.904508
			vertex 0.293893 -0.309017 0.904508
		endloop
	endfacet
	facet normal 0.581228 -0.148952 0.799992
		outer loop
			vertex 0.309017 6.12323e-17 0.951057
			vertex 0.293893 -0.309017 0.904508
			vertex 0.809017 6.12323e-17 0.587785
		endloop
	endfacet
	facet normal 0.581228 -0.148952 0.799992
		outer loop
			vertex 0.809017 6.12323e-17 0.587785
			vertex 0.293893 -0.309017 0.904508
			vertex 0.769421 -0.309017 0.559017
		endloop
	endfacet
	facet normal 0.940447 -0.148952 0.30557
		outer loop
			vertex 0.809017 6.12323e-17 0.587785
			vertex 0.769421 -0.309017 0.559017
			vertex 1 6.12323e-17 1.22465e-16
		endloop
	endfacet
	facet normal 0.940447 -0.148952 0.30557
		outer loop
			vertex 1 6.12323e-17 1.22465e-16
			vertex 0.769421 -0.309017 0.559017
			vertex 0.951057 -0.309017 1.16471e-16
		endloop
	endfacet
	facet normal 0.940447 -0.148952 -0.30557
		outer loop
			vertex 1 6.12323e-17 1.22465e-16
			vertex 0.951057 -0.309017 1.16471e-16
			vertex 0.809017 6.12323e-17 -0.587785
		endloop
	endfacet
	facet normal 0.940447 -0.148952 -0.30557
		outer loop
			vertex 0.809017 6.12323e-17 -0.587785
			vertex 0.951057 -0.309017 1.16471e-16
			vertex 0.769421 -0.309017 -0.559017
		endloop
	endfacet
	facet normal 0.581228 -0.148952 -0.799992
		outer loop
			vertex 0.809017 6.12323e-17 -0.587785
			vertex 0.769421 -0.309017 -0.559017
			vertex 0.309017 6.12323e-17 -0.951057
		endloop
	endfacet
	facet normal 0.581228 -0.148952 -0.799992
		outer loop
			vertex 0.309017 6.12323e-17 -0.951057
			vertex 0.769421 -0.309017 -0.559017
			vertex 0.293893 -0.309017 -0.904508
		endloop
	endfacet
	facet normal 1.77634e-16 -0.148952 -0.988844
		outer loop
			vertex 0.309017 6.12323e-17 -0.951057
			vertex 0.293893 -0.309017 -0.904508
			vertex -0.309017 6.12323e-17 -0.951057
		endloop
	endfacet
	facet normal 1.88881e-16 -0.148952 -0.988844
		outer loop
			vertex -0.309017 6.12323e-17 -0.951057
			vertex 0.293893 -0.309017 -0.904508
			vertex -0.293893 -0.309017 -0.904508
		endloop
	endfacet
	facet normal -0.581228 -0.148952 -0.799992
		outer loop
			vertex -0.309017 6.12323e-17 -0.951057
			vertex -0.293893 -0.309017 -0.904508
			vertex -0.809017 6.12323e-17 -0.587785
		endloop
	endfacet
	facet normal -0.581228 -0.148952 -0.799992
		outer loop
			vertex -0.809017 6.12323e-17 -0.587785
			vertex -0.293893 -0.309017 -0.904508
			vertex -0.769421 -0.309017 -0.559017
		endloop
	endfacet
	facet normal -0.587785 -5.61368e-17 0.809017
		outer loop
			vertex -0.809017 6.12323e-17 -0.587785
			vertex -0.769421 -0.309017 -0.559017
			vertex 0 0 0
		endloop
	endfacet
	facet normal 0.532496 0.173019 -0.82856
		outer loop
			vertex 0 0 0
			vertex -0.769421 -0.309017 -0.559017
			vertex -0.309017 0.951057 0
		endloop
	endfacet
	facet normal -0.855862 -0.436083 0.278086
		outer loop
			vertex -0.951057 -0.309017 0
			vertex -0.809017 -0.587785 0
			vertex -0.769421 -0.309017 0.559017
		endloop
	endfacet
	facet normal -0.855862 -0.436083 0.278086
		outer loop
			vertex -0.769421 -0.309017 0.559017
			vertex -0.809017 -0.587785 0
			vertex -0.654508 -0.587785 0.475528
		endloop
	endfacet
	facet normal -0.528952 -0.436083 0.728039
		outer loop
			vertex -0.769421 -0.309017 0.559017
			vertex -0.654508 -0.587785 0.475528
			vertex -0.293893 -0.309017 0.904508
		endloop
	endfacet
	facet normal -0.528952 -0.436083 0.728039
		outer loop
			vertex -0.293893 -0.309017 0.904508
			vertex -0.654508 -0.587785 0.475528
			vertex -0.25 -0.587785 0.769421
		endloop
	endfacet
	facet normal -1.69976e-16 -0.436083 0.899906
		outer loop
			vertex -0.293893 -0.309017 0.904508
			vertex -0.25 -0.587785 0.769421
			vertex 0.293893 -0.309017 0.904508
		endloop
	endfacet
	facet normal 0 -0.436083 0.899906
		outer loop
			vertex 0.293893 -0.309017 0.904508
			vertex -0.25 -0.587785 0.769421
			vertex 0.25 -0.587785 0.769421
		endloop
	endfacet
	facet normal 0.528952 -0.436083 0.728039
		outer loop
			vertex 0.293893 -0.309017 0.904508
			vertex 0.25 -0.587785 0.769421
			vertex 0.769421 -0.309017 0.559017
		endloop
	endfacet
	facet normal 0.528952 -0.436083 0.728039
		outer loop
			vertex 0.769421 -0.309017 0.559017
			vertex 0.25 -0.587785 0.769421
			vertex 0.654508 -0.587785 0.475528
		endloop
	endfacet
	facet normal 0.855862 -0.436083 0.278086
		outer loop
			vertex 0.769421 -0.309017 0.559017
			vertex 0.654508 -0.587785 0.475528
			vertex 0.951057 -0.309017 1.16471e-16
		endloop
	endfacet
	facet normal 0.855862 -0.436083 0.278086
		outer loop
			vertex 0.951057 -0.309017 1.16471e-16
			vertex 0.654508 -0.587785 0.475528
			vertex 0.809017 -0.587785 9.9076e-17
		endloop
	endfacet
	facet normal 0.855862 -0.436083 -0.278086
		outer loop
			vertex 0.951057 -0.309017 1.16471e-16
			vertex 0.809017 -0.587785 9.9076e-17
			vertex 0.769421 -0.309017 -0.559017
		endloop
	endfacet
	facet normal 0.855862 -0.436083 -0.278086
		outer loop
			vertex 0.769421 -0.309017 -0.559017
			vertex 0.809017 -0.587785 9.9076e-17
			vertex 0.654508 -0.587785 -0.475528
		endloop
	endfacet
	facet normal 0.528952 -0.436083 -0.728039
		outer loop
			vertex 0.769421 -0.309017 -0.559017
			vertex 0.654508 -0.587785 -0.475528
			vertex 0.293893 -0.309017 -0.904508
		endloop
	endfacet
	facet normal 0.528952 -0.436083 -0.728039
		outer loop
			vertex 0.293893 -0.309017 -0.904508
			vertex 0.654508 -0.587785 -0.475528
			vertex 0.25 -0.587785 -0.769421
		endloop
	endfacet
	facet normal 1.69976e-16 -0.436083 -0.899906
		outer loop
			vertex 0.293893 -0.309017 -0.904508
			vertex 0.25 -0.587785 -0.769421
			vertex -0.293893 -0.309017 -0.904508
		endloop
	endfacet
	facet normal 0 -0.436083 -0.899906
		outer loop
			vertex -0.293893 -0.309017 -0.904508
			vertex 0.25 -0.587785 -0.769421
			vertex -0.25 -0.587785 -0.769421
		endloop
	endfacet
	facet normal -0.528952 -0.436083 -0.728039
		outer loop
			vertex -0.293893 -0.309017 -0.904508
			vertex -0.25 -0.587785 -0.769421
			vertex -0.769421 -0.309017 -0.559017
		endloop
	endfacet
	facet normal -0.528952 -0.436083 -0.728039
		outer loop
			vertex -0.769421 -0.309017 -0.559017
			vertex -0.25 -0.587785 -0.769421
			vertex -0.654508 -0.587785 -0.475528
		endloop
	endfacet
	facet normal -0.587785 -4.49095e-17 0.809017
		outer loop
			vertex -0.769421 -0.309017 -0.559017
			vertex -0.654508 -0.587785 -0.475528
			vertex 0 0 0
		endloop
	endfacet
	facet normal 0.484111 0.157297 -0.860752
		outer loop
			vertex 0 0 0
			vertex -0.654508 -0.587785 -0.475528
			vertex -0.309017 0.951057 0
		endloop
	endfacet
	facet normal -0.689152 -0.689152 0.223919
		outer loop
			vertex -0.809017 -0.587785 0
			vertex -0.587785 -0.809017 0
			vertex -0.654508 -0.587785 0.475528
		endloop
	endfacet
	facet normal -0.689152 -0.689152 0.223919
		outer loop
			vertex -0.654508 -0.587785 0.475528
			vertex -0.587785 -0.809017 0
			vertex -0.475528 -0.809017 0.345492
		endloop
	endfacet
	facet normal -0.425919 -0.689152 0.586227
		outer loop
			vertex -0.654508 -0.587785 0.475528
			vertex -0.475528 -0.809017 0.345492
			vertex -0.25 -0.587785 0.769421
		endloop
	endfacet
	facet normal -0.425919 -0.689152 0.586227
		outer loop
			vertex -0.25 -0.587785 0.769421
			vertex -0.475528 -0.809017 0.345492
			vertex -0.181636 -0.809017 0.559017
		endloop
	endfacet
	facet normal 0 -0.689152 0.724617
		outer loop
			vertex -0.25 -0.587785 0.769421
			vertex -0.181636 -0.809017 0.559017
			vertex 0.25 -0.587785 0.769421
		endloop
	endfacet
	facet normal 0 -0.689152 0.724617
		outer loop
			vertex 0.25 -0.587785 0.769421
			vertex -0.181636 -0.809017 0.559017
			vertex 0.181636 -0.809017 0.559017
		endloop
	endfacet
	facet normal 0.425919 -0.689152 0.586227
		outer loop
			vertex 0.25 -0.587785 0.769421
			vertex 0.181636 -0.809017 0.559017
			vertex 0.654508 -0.587785 0.475528
		endloop
	endfacet
	facet normal 0.425919 -0.689152 0.586227
		outer loop
			vertex 0.654508 -0.587785 0.475528
			vertex 0.181636 -0.809017 0.559017
			vertex 0.475528 -0.809017 0.345492
		endloop
	endfacet
	facet normal 0.689152 -0.689152 0.223919
		outer loop
			vertex 0.654508 -0.587785 0.475528
			vertex 0.475528 -0.809017 0.345492
			vertex 0.809017 -0.587785 9.9076e-17
		endloop
	endfacet
	facet normal 0.689152 -0.689152 0.223919
		outer loop
			vertex 0.809017 -0.587785 9.9076e-17
			vertex 0.475528 -0.809017 0.345492
			vertex 0.587785 -0.809017 7.19829e-17
		endloop
	endfacet
	facet normal 0.689152 -0.689152 -0.223919
		outer loop
			vertex 0.809017 -0.587785 9.9076e-17
			vertex 0.587785 -0.809017 7.19829e-17
			vertex 0.654508 -0.587785 -0.475528
		endloop
	endfacet
	facet normal 0.689152 -0.689152 -0.223919
		outer loop
			vertex 0.654508 -0.587785 -0.475528
			vertex 0.587785 -0.809017 7.19829e-17
			vertex 0.475528 -0.809017 -0.345492
		endloop
	endfacet
	facet normal 0.425919 -0.689152 -0.586227
		outer loop
			vertex 0.654508 -0.587785 -0.475528
			vertex 0.475528 -0.809017 -0.345492
			vertex 0.25 -0.587785 -0.769421
		endloop
	endfacet
	facet normal 0.425919 -0.689152 -0.586227
		outer loop
			vertex 0.25 -0.587785 -0.769421
			vertex 0.475528 -0.809017 -0.345492
			vertex 0.181636 -0.809017 -0.559017
		endloop
	endfacet
	facet normal -0 -0.689152 -0.724617
		outer loop
			vertex 0.25 -0.587785 -0.769421
			vertex 0.181636 -0.809017 -0.559017
			vertex -0.25 -0.587785 -0.769421
		endloop
	endfacet
	facet normal 0 -0.689152 -0.724617
		outer loop
			vertex -0.25 -0.587785 -0.769421
			vertex 0.181636 -0.809017 -0.559017
			vertex -0.181636 -0.809017 -0.559017
		endloop
	endfacet
	facet normal -0.425919 -0.689152 -0.586227
		outer loop
			vertex -0.25 -0.587785 -0.769421
			vertex -0.181636 -0.809017 -0.559017
			vertex -0.654508 -0.587785 -0.475528
		endloop
	endfacet
	facet normal -0.425919 -0.689152 -0.586227
		outer loop
			vertex -0.654508 -0.587785 -0.475528
			vertex -0.181636 -0.809017 -0.559017
			vertex -0.475528 -0.809017 -0.345492
		endloop
	endfacet
	facet normal -0.587785 4.49095e-17 0.809017
		outer loop
			vertex -0.654508 -0.587785 -0.475528
			vertex -0.475528 -0.809017 -0.345492
			vertex 0 0 0
		endloop
	endfacet
	facet normal 0.419838 0.136414 -0.897289
		outer loop
			vertex 0 0 0
			vertex -0.475528 -0.809017 -0.345492
			vertex -0.309017 0.951057 0
		endloop
	endfacet
	facet normal -0.44913 -0.881468 0.145931
		outer loop
			vertex -0.587785 -0.809017 0
			vertex -0.309017 -0.951057 0
			vertex -0.475528 -0.809017 0.345492
		endloop
	endfacet
	facet normal -0.44913 -0.881468 0.145931
		outer loop
			vertex -0.475528 -0.809017 0.345492
			vertex -0.309017 -0.951057 0
			vertex -0.25 -0.951057 0.181636
		endloop
	endfacet
	facet normal -0.277578 -0.881468 0.382053
		outer loop
			vertex -0.475528 -0.809017 0.345492
			vertex -0.25 -0.951057 0.181636
			vertex -0.181636 -0.809017 0.559017
		endloop
	endfacet
	facet normal -0.277578 -0.881468 0.382053
		outer loop
			vertex -0.181636 -0.809017 0.559017
			vertex -0.25 -0.951057 0.181636
			vertex -0.0954915 -0.951057 0.293893
		endloop
	endfacet
	facet normal 0 -0.881468 0.472244
		outer loop
			vertex -0.181636 -0.809017 0.559017
			vertex -0.0954915 -0.951057 0.293893
			vertex 0.181636 -0.809017 0.559017
		endloop
	endfacet
	facet normal -2.41592e-16 -0.881468 0.472244
		outer loop
			vertex 0.181636 -0.809017 0.559017
			vertex -0.0954915 -0.951057 0.293893
			vertex 0.0954915 -0.951057 0.293893
		endloop
	endfacet
	facet normal 0.277578 -0.881468 0.382053
		outer loop
			vertex 0.181636 -0.809017 0.559017
			vertex 0.0954915 -0.951057 0.293893
			vertex 0.475528 -0.809017 0.345492
		endloop
	endfacet
	facet normal 0.277578 -0.881468 0.382053
		outer loop
			vertex 0.475528 -0.809017 0.345492
			vertex 0.0954915 -0.951057 0.293893
			vertex 0.25 -0.951057 0.181636
		endloop
	endfacet
	facet normal 0.44913 -0.881468 0.145931
		outer loop
			vertex 0.475528 -0.809017 0.345492
			vertex 0.25 -0.951057 0.181636
			vertex 0.587785 -0.809017 7.19829e-17
		endloop
	endfacet
	facet normal 0.44913 -0.881468 0.145931
		outer loop
			vertex 0.587785 -0.809017 7.19829e-17
			vertex 0.25 -0.951057 0.181636
			vertex 0.309017 -0.951057 3.78437e-17
		endloop
	endfacet
	facet normal 0.44913 -0.881468 -0.145931
		outer loop
			vertex 0.587785 -0.809017 7.19829e-17
			vertex 0.309017 -0.951057 3.78437e-17
			vertex 0.475528 -0.809017 -0.345492
		endloop
	endfacet
	facet normal 0.44913 -0.881468 -0.145931
		outer loop
			vertex 0.475528 -0.809017 -0.345492
			vertex 0.309017 -0.951057 3.78437e-17
			vertex 0.25 -0.951057 -0.181636
		endloop
	endfacet
	facet normal 0.277578 -0.881468 -0.382053
		outer loop
			vertex 0.475528 -0.809017 -0.345492
			vertex 0.25 -0.951057 -0.181636
			vertex 0.181636 -0.809017 -0.559017
		endloop
	endfacet
	facet normal 0.277578 -0.881468 -0.382053
		outer loop
			vertex 0.181636 -0.809017 -0.559017
			vertex 0.25 -0.951057 -0.181636
			vertex 0.0954915 -0.951057 -0.293893
		endloop
	endfacet
	facet normal -0 -0.881468 -0.472244
		outer loop
			vertex 0.181636 -0.809017 -0.559017
			vertex 0.0954915 -0.951057 -0.293893
			vertex -0.181636 -0.809017 -0.559017
		endloop
	endfacet
	facet normal 2.41592e-16 -0.881468 -0.472244
		outer loop
			vertex -0.181636 -0.809017 -0.559017
			vertex 0.0954915 -0.951057 -0.293893
			vertex -0.0954915 -0.951057 -0.293893
		endloop
	endfacet
	facet normal -0.277578 -0.881468 -0.382053
		outer loop
			vertex -0.181636 -0.809017 -0.559017
			vertex -0.0954915 -0.951057 -0.293893
			vertex -0.475528 -0.809017 -0.345492
		endloop
	endfacet
	facet normal -0.277578 -0.881468 -0.382053
		outer loop
			vertex -0.475528 -0.809017 -0.345492
			vertex -0.0954915 -0.951057 -0.293893
			vertex -0.25 -0.951057 -0.181636
		endloop
	endfacet
	facet normal -0.587785 4.49095e-17 0.809017
		outer loop
			vertex -0.475528 -0.809017 -0.345492
			vertex -0.25 -0.951057 -0.181636
			vertex 0 0 0
		endloop
	endfacet
	facet normal 0.307471 0.0999034 -0.946299
		outer loop
			vertex 0 0 0
			vertex -0.25 -0.951057 -0.181636
			vertex -0.309017 0.951057 0
		endloop
	endfacet
	facet normal -0.44913 0.881468 -0.145931
		outer loop
			vertex -0.25 0.951057 -0.181636
			vertex -0.475528 0.809017 -0.345492
			vertex -0.309017 0.951057 0
		endloop
	endfacet
	facet normal 0.44913 -0.881468 0.145931
		outer loop
			vertex -0.309017 0.951057 0
			vertex -0.475528 0.809017 -0.345492
			vertex -0.587785 0.809017 0
		endloop
	endfacet
	facet normal -0.689152 0.689152 -0.223919
		outer loop
			vertex -0.475528 0.809017 -0.345492
			vertex -0.654508 0.587785 -0.475528
			vertex -0.587785 0.809017 0
		endloop
	endfacet
	facet normal 0.689152 -0.689152 0.223919
		outer loop
			vertex -0.587785 0.809017 0
			vertex -0.654508 0.587785 -0.475528
			vertex -0.809017 0.587785 0
		endloop
	endfacet
	facet normal -0.855862 0.436083 -0.278086
		outer loop
			vertex -0.654508 0.587785 -0.475528
			vertex -0.769421 0.309017 -0.559017
			vertex -0.809017 0.587785 0
		endloop
	endfacet
	facet normal 0.855862 -0.436083 0.278086
		outer loop
			vertex -0.809017 0.587785 0
			vertex -0.769421 0.309017 -0.559017
			vertex -0.951057 0.309017 0
		endloop
	endfacet
	facet normal -0.940447 0.148952 -0.30557
		outer loop
			vertex -0.769421 0.309017 -0.559017
			vertex -0.809017 6.12323e-17 -0.587785
			vertex -0.951057 0.309017 0
		endloop
	endfacet
	facet normal 0.940447 -0.148952 0.30557
		outer loop
			vertex -0.951057 0.309017 0
			vertex -0.809017 6.12323e-17 -0.587785
			vertex -1 6.12323e-17 0
		endloop
	endfacet
	facet normal -0.940447 -0.148952 -0.30557
		outer loop
			vertex -0.809017 6.12323e-17 -0.587785
			vertex -0.769421 -0.309017 -0.559017
			vertex -1 6.12323e-17 0
		endloop
	endfacet
	facet normal 0.940447 0.148952 0.30557
		outer loop
			vertex -1 6.12323e-17 0
			vertex -0.769421 -0.309017 -0.559017
			vertex -0.951057 -0.309017 0
		endloop
	endfacet
	facet normal -0.855862 -0.436083 -0.278086
		outer loop
			vertex -0.769421 -0.309017 -0.559017
			vertex -0.654508 -0.587785 -0.475528
			vertex -0.951057 -0.309017 0
		endloop
	endfacet
	facet normal 0.855862 0.436083 0.278086
		outer loop
			vertex -0.951057 -0.309017 0
			vertex -0.654508 -0.587785 -0.475528
			vertex -0.809017 -0.587785 0
		endloop
	endfacet
	facet normal -0.689152 -0.689152 -0.223919
		outer loop
			vertex -0.654508 -0.587785 -0.475528
			vertex -0.475528 -0.809017 -0.345492
			vertex -0.809017 -0.587785 0
		endloop
	endfacet
	facet normal 0.689152 0.689152 0.223919
		outer loop
			vertex -0.809017 -0.587785 0
			vertex -0.475528 -0.809017 -0.345492
			vertex -0.587785 -0.809017 0
		endloop
	endfacet
	facet normal -0.44913 -0.881468 -0.145931
		outer loop
			vertex -0.475528 -0.809017 -0.345492
			vertex -0.25 -0.951057 -0.181636
			vertex -0.587785 -0.809017 0
		endloop
	endfacet
	facet normal 0.44913 0.881468 0.145931
		outer loop
			vertex -0.587785 -0.809017 0
			vertex -0.25 -0.951057 -0.181636
			vertex -0.309017 -0.951057 0
		endloop
	endfacet
	facet normal 0.908661 -0.295242 0.295242
		outer loop
			vertex -0.25 -0.951057 -0.181636
			vertex 0 0 0
			vertex -0.309017 -0.951057 0
		endloop
	endfacet
	facet normal -0.156233 -0.986415 0.0507631
		outer loop
			vertex 0 -1 0
			vertex -0.25 -0.951057 0.181636
			vertex -0.309017 -0.951057 0
		endloop
	endfacet
	facet normal -0.0965572 -0.986415 0.1329
		outer loop
			vertex 0 -1 0
			vertex -0.0954915 -0.951057 0.293893
			vertex -0.25 -0.951057 0.181636
		endloop
	endfacet
	facet normal -6.09728e-17 -0.986415 0.164273
		outer loop
			vertex 0 -1 0
			vertex 0.0954915 -0.951057 0.293893
			vertex -0.0954915 -0.951057 0.293893
		endloop
	endfacet
	facet normal 0.0965572 -0.986415 0.1329
		outer loop
			vertex 0 -1 0
			vertex 0.25 -0.951057 0.181636
			vertex 0.0954915 -0.951057 0.293893
		endloop
	endfacet
	facet normal 0.156233 -0.986415 0.0507631
		outer loop
			vertex 0 -1 0
			vertex 0.309017 -0.951057 3.78437e-17
			vertex 0.25 -0.951057 0.181636
		endloop
	endfacet
	facet normal 0.156233 -0.986415 -0.0507631
		outer loop
			vertex 0 -1 0
			vertex 0.25 -0.951057 -0.181636
			vertex 0.309017 -0.951057 3.78437e-17
		endloop
	endfacet
	facet normal 0.0965572 -0.986415 -0.1329
		outer loop
			vertex 0 -1 0
			vertex 0.0954915 -0.951057 -0.293893
			vertex 0.25 -0.951057 -0.181636
		endloop
	endfacet
	facet normal 6.09728e-17 -0.986415 -0.164273
		outer loop
			vertex 0 -1 0
			vertex -0.0954915 -0.951057 -0.293893
			vertex 0.0954915 -0.951057 -0.293893
		endloop
	endfacet
	facet normal -0.0965572 -0.986415 -0.1329
		outer loop
			vertex 0 -1 0
			vertex -0.25 -0.951057 -0.181636
			vertex -0.0954915 -0.951057 -0.293893
		endloop
	endfacet
	facet normal -0.587785 0 0.809017
		outer loop
			vertex 0 -1 0
			vertex 0 0 0
			vertex -0.25 -0.951057 -0.181636
		endloop
	endfacet
	facet normal 0.156233 0.986415 -0.0507631
		outer loop
			vertex 0 -1 0
			vertex -0.309017 -0.951057 -0
			vertex -0.25 -0.951057 -0.181636
		endloop
	endfacet
endsolid sphere
